<?xml version="1.0" standalone="no"?><!DOCTYPE svg PUBLIC "-//W3C//DTD SVG 1.1//EN" "http://www.w3.org/Graphics/SVG/1.1/DTD/svg11.dtd"><svg t="1611453728807" class="icon" viewBox="0 0 1252 1024" version="1.1" xmlns="http://www.w3.org/2000/svg" p-id="9927" xmlns:xlink="http://www.w3.org/1999/xlink" width="58.6875" height="48"><defs><style type="text/css"></style></defs><path d="M231.129872 561.565957H33.639489a32.757106 32.757106 0 0 0-32.822468 32.844256v395.634383A32.757106 32.757106 0 0 0 33.639489 1022.910638h197.501277a32.757106 32.757106 0 0 0 32.811574-32.855149V594.410213c0.27234-18.344851-14.488511-32.855149-32.822468-32.855149z m-32.822468 395.351149H66.472851v-329.640851h131.834553v329.640851zM560.465702 363.607149h-197.501276a32.757106 32.757106 0 0 0-32.811575 32.855149v593.309957a32.757106 32.757106 0 0 0 32.822468 32.855149h197.490383a32.757106 32.757106 0 0 0 32.822468-32.855149v-593.04851a32.64817 32.64817 0 0 0-32.822468-33.116596z m-32.822468 593.309957H395.797787V429.589787h131.845447v527.327319zM889.790638 495.572426H692.300255a32.757106 32.757106 0 0 0-32.822468 32.855148v461.344681a32.757106 32.757106 0 0 0 32.822468 32.855149h197.501277a32.757106 32.757106 0 0 0 32.811574-32.855149v-461.344681a32.757106 32.757106 0 0 0-32.822468-32.855148z m-32.822468 461.34468H725.122723V561.565957h131.845447v395.362043zM1219.126468 231.903319h-197.501277a32.757106 32.757106 0 0 0-32.811574 32.855149v725.013787a32.757106 32.757106 0 0 0 32.822468 32.855149h197.490383a32.757106 32.757106 0 0 0 32.822468-32.855149V264.758468a32.931404 32.931404 0 0 0-32.822468-32.855149z m-32.833362 725.013787H1054.458553V297.613617h131.834553v659.303489z" p-id="9928"></path><path d="M132.390128 429.589787c6.557957 0 13.126809-1.917277 18.867744-6.02417l313.19149-219.310298 311.557447 158.523915c12.037447 6.296511 26.798298 4.106894 36.929361-4.923915L1142.522553 58.313532c13.399149-12.309787 14.488511-33.116596 2.178724-46.537532-12.298894-13.420936-33.083915-14.510298-46.493958-2.189617l-312.646808 284.192681L476.486809 136.627745a32.953191 32.953191 0 0 0-33.91183 2.461957L113.511489 369.620426c-15.033191 10.414298-18.595404 30.937872-8.202893 46.003744a33.443404 33.443404 0 0 0 27.081532 13.965617z" p-id="9929"></path></svg>
