<?xml version="1.0" standalone="no"?><!DOCTYPE svg PUBLIC "-//W3C//DTD SVG 1.1//EN" "http://www.w3.org/Graphics/SVG/1.1/DTD/svg11.dtd"><svg t="1611560833951" class="icon" viewBox="0 0 1024 1024" version="1.1" xmlns="http://www.w3.org/2000/svg" p-id="4323" xmlns:xlink="http://www.w3.org/1999/xlink" width="48" height="48"><defs><style type="text/css"></style></defs><path d="M282.816 118.64533333c43.85066667 0 85.07733333 17.07733333 116.08533333 48.08533334 31.008 31.008 48.08533333 72.23466667 48.08533334 116.08533333v164.17066667H282.816c-43.85066667 0-85.07733333-17.07733333-116.08533333-48.08533334-31.008-31.008-48.08533333-72.23466667-48.08533334-116.08533333s17.07733333-85.07733333 48.08533334-116.08533333c31.008-31.008 72.23466667-48.08533333 116.08533333-48.08533334m0-48c-117.17333333 0-212.17066667 94.98666667-212.17066667 212.17066667 0 117.17333333 94.98666667 212.17066667 212.17066667 212.17066667h212.17066667V282.816c0-117.184-94.99733333-212.17066667-212.17066667-212.17066667zM446.74133333 579.62666667v164.17066666c0 43.85066667-17.07733333 85.07733333-48.08533333 116.08533334-31.008 31.008-72.23466667 48.08533333-116.08533333 48.08533333s-85.07733333-17.07733333-116.08533334-48.08533333C135.47733333 828.87466667 118.4 787.648 118.4 743.79733333s17.07733333-85.07733333 48.08533333-116.08533333c31.008-31.008 72.23466667-48.08533333 116.08533334-48.08533333h164.17066666m48-48H282.57066667C165.39733333 531.62666667 70.4 626.61333333 70.4 743.79733333c0 117.17333333 94.98666667 212.17066667 212.17066667 212.17066667 117.17333333 0 212.17066667-94.98666667 212.17066666-212.17066667V531.62666667zM743.56266667 118.592c43.85066667 0 85.07733333 17.07733333 116.08533333 48.08533333S907.73333333 238.912 907.73333333 282.76266667s-17.07733333 85.07733333-48.08533333 116.08533333C828.64 429.856 787.41333333 446.93333333 743.56266667 446.93333333h-166.50666667V282.76266667c0-43.85066667 17.07733333-85.07733333 48.08533333-116.08533334 31.008-31.008 72.23466667-48.08533333 116.08533334-48.08533333h2.336m0-48h-2.336c-117.17333333 0-212.17066667 94.98666667-212.17066667 212.17066667V494.93333333h214.50666667C860.736 494.93333333 955.73333333 399.94666667 955.73333333 282.76266667c0-117.17333333-94.99733333-212.17066667-212.17066666-212.17066667zM743.328 579.15733333c43.85066667 0 85.07733333 17.07733333 116.08533333 48.08533334 31.008 31.008 48.08533333 72.23466667 48.08533334 116.08533333s-17.07733333 85.07733333-48.08533334 116.08533333c-31.008 31.008-72.23466667 48.08533333-116.08533333 48.08533334s-85.07733333-17.07733333-116.08533333-48.08533334c-31.008-31.008-48.08533333-72.23466667-48.08533334-116.08533333V579.15733333h164.17066667m0-48H531.15733333v212.17066667c0 117.17333333 94.98666667 212.17066667 212.17066667 212.17066667 117.17333333 0 212.17066667-94.98666667 212.17066667-212.17066667 0-117.17333333-94.99733333-212.17066667-212.17066667-212.17066667z" p-id="4324"></path></svg>