<?xml version="1.0" standalone="no"?><!DOCTYPE svg PUBLIC "-//W3C//DTD SVG 1.1//EN" "http://www.w3.org/Graphics/SVG/1.1/DTD/svg11.dtd"><svg t="1611450389183" class="icon" viewBox="0 0 1024 1024" version="1.1" xmlns="http://www.w3.org/2000/svg" p-id="7439" xmlns:xlink="http://www.w3.org/1999/xlink" width="48" height="48"><defs><style type="text/css"></style></defs><path d="M885.96 417.4C869.98 225.67 709.12 74.47 513.34 74.47h-2.49c-195.78 0-356.64 151.2-372.62 342.93-41.07 12.94-71.14 50.94-71.14 96.23v108.56c0 55.88 45.46 101.34 101.35 101.34h14.16c55.89 0 101.35-45.46 101.35-101.34V513.63c0-50.25-36.85-91.76-84.9-99.68 17.35-156.75 150.5-279.11 311.8-279.11h2.49c161.3 0 294.45 122.36 311.8 279.11-48.04 7.92-84.9 49.43-84.9 99.68v108.56c0 45.41 30.23 83.49 71.47 96.33-25.84 48.75-82.22 134.6-157.06 131.29-7.84-29.27-34.29-50.95-66.04-50.95h-79.69c-37.9 0-68.63 30.73-68.63 68.63v13.66c0 37.9 30.72 68.63 68.63 68.63h79.69c27.55 0 51.13-16.33 62.06-39.75 3.22 0.2 6.55 0.75 9.71 0.75 121.57 0 197.25-145.5 217.51-189.86 45.23-10.15 79.2-50.48 79.2-98.73V513.63c0.01-45.3-30.06-83.29-71.13-96.23z m-662.37 96.23v108.56c0 22.59-18.38 40.97-40.98 40.97h-14.16c-22.6 0-40.98-18.38-40.98-40.97V513.63c0-22.6 18.38-40.98 40.98-40.98h14.16c22.59 0 40.98 18.38 40.98 40.98z m673.14 108.56c0 22.59-18.38 40.97-40.97 40.97h-14.17c-22.6 0-40.98-18.38-40.98-40.97V513.63c0-22.6 18.38-40.98 40.98-40.98h14.17c22.59 0 40.97 18.38 40.97 40.98v108.56z" p-id="7440"></path></svg>