<?xml version="1.0" standalone="no"?><!DOCTYPE svg PUBLIC "-//W3C//DTD SVG 1.1//EN" "http://www.w3.org/Graphics/SVG/1.1/DTD/svg11.dtd"><svg t="1612491290106" class="icon" viewBox="0 0 1024 1024" version="1.1" xmlns="http://www.w3.org/2000/svg" p-id="8939" xmlns:xlink="http://www.w3.org/1999/xlink" width="48" height="48"><defs><style type="text/css"></style></defs><path d="M488.8 523.9L200.9 376.1c-13.7-5.5-20.3-21.1-14.8-34.8 2.7-6.8 8.1-12.1 14.8-14.8l284.7-147.8c11.6-6.1 25.4-6.1 37 0l289.8 147.8c13.7 5.5 20.3 21.1 14.8 34.8-2.7 6.8-8.1 12.1-14.8 14.8L527.2 523.9a40.8 40.8 0 0 1-38.4 0z" fill="#1E88E5" p-id="8940"></path><path d="M810.9 471.1c13.8 5.8 20.3 21.6 14.5 35.4-2.7 6.6-8 11.8-14.5 14.5L525.6 668.8a42.37 42.37 0 0 1-37.4 0L200.3 521c-13.8-5.8-20.3-21.6-14.5-35.4 2.7-6.6 8-11.8 14.5-14.5l22.2-11.3 266.3 136.5c11.8 5.8 25.6 5.8 37.4 0l263.1-136.2 21.6 11z" fill="#64B5F6" p-id="8941"></path><path d="M810.9 616c13.7 5.5 20.3 21.1 14.8 34.8-2.7 6.8-8.1 12.1-14.8 14.8L525.6 813.4c-11.7 6.1-25.7 6.1-37.4 0L200.3 665.6c-13.7-5.5-20.3-21.1-14.8-34.8 2.7-6.8 8.1-12.1 14.8-14.8l22.2-11.6 266.3 136.9c11.8 5.8 25.6 5.8 37.4 0l263.1-136.5c0-0.1 21.6 11.2 21.6 11.2z" fill="#64B5F6" p-id="8942"></path></svg>