<?xml version="1.0" standalone="no"?><!DOCTYPE svg PUBLIC "-//W3C//DTD SVG 1.1//EN" "http://www.w3.org/Graphics/SVG/1.1/DTD/svg11.dtd"><svg t="1612485658232" class="icon" viewBox="0 0 1024 1024" version="1.1" xmlns="http://www.w3.org/2000/svg" p-id="2022" xmlns:xlink="http://www.w3.org/1999/xlink" width="48" height="48"><defs><style type="text/css"></style></defs><path d="M0 0h1024v1024H0z" fill="#FFFFFF" fill-opacity="0" p-id="2023"></path><path d="M512 512m-455.111111 0a455.111111 455.111111 0 1 0 910.222222 0 455.111111 455.111111 0 1 0-910.222222 0Z" fill="#00C5CD" p-id="2024"></path><path d="M256 487.822222c12.373333-189.781333 333.568-140.8 333.568-140.8l55.580444 12.231111c259.413333 67.328 61.752889 385.649778-166.769777 348.928C269.994667 674.673778 256.739556 519.054222 256 491.861333zM512 369.777778c-109.966222 0-199.111111 38.200889-199.111111 85.333333s89.144889 85.333333 199.111111 85.333333 199.111111-38.200889 199.111111-85.333333-89.144889-85.333333-199.111111-85.333333z" fill="#FFFFFF" p-id="2025"></path><path d="M574.094222 415.118222s-106.069333-16.668444-117.845333 22.215111c-11.776 38.912 70.684444 83.370667 135.509333-5.546666 64.796444-88.917333 106.040889-122.254222 159.089778-127.829334 53.020444-5.546667-29.468444-88.917333-76.600889-22.215111-47.132444 66.673778-100.152889 133.376-100.152889 133.376z" fill="#FFFFFF" p-id="2026"></path></svg>