<?xml version="1.0" standalone="no"?><!DOCTYPE svg PUBLIC "-//W3C//DTD SVG 1.1//EN" "http://www.w3.org/Graphics/SVG/1.1/DTD/svg11.dtd"><svg t="1611458880742" class="icon" viewBox="0 0 1024 1024" version="1.1" xmlns="http://www.w3.org/2000/svg" p-id="25036" xmlns:xlink="http://www.w3.org/1999/xlink" width="48" height="48"><defs><style type="text/css"></style></defs><path d="M409.60512 25.59872a25.59872 25.59872 0 0 0-51.19744 0c0 66.863857 12.901755 122.720264 23.294835 167.620419 10.137093 43.722614 18.072696 78.280886 6.655667 92.718564-9.522724 11.980201-36.708565 18.943053-80.943153 20.786161A2032.384781 2032.384781 0 0 1 307.210239 281.637118v-204.78976a25.59872 25.59872 0 0 0-51.19744 0v204.78976c0 8.447578-0.051197 16.79276-0.204789 25.086746-44.080996-1.894305-71.215639-8.908355-80.738363-20.888556-11.519424-14.488876-3.532623-49.098345 6.553272-92.872156C191.964802 148.165392 204.815359 92.360182 204.815359 25.701115a25.59872 25.59872 0 0 0-51.19744 0c0 60.873756-12.133793 113.504725-21.861307 155.79381-13.20894 57.238738-23.60202 102.497275 3.276636 136.287586 19.967002 25.086746 56.368382 37.527724 119.443628 40.18999-5.734113 142.840858-26.417879 265.714714-43.569021 367.444028-22.834058 135.366032-37.886106 224.756762 0.614369 270.271287 15.922404 18.840658 39.524424 28.414579 70.140493 28.414579s54.218089-9.573921 70.140493-28.414579c38.500475-45.565722 23.448428-135.058847 0.614369-270.527274-17.099945-101.626919-37.783711-224.449578-43.569021-367.188041 63.228839-2.559872 99.630218-14.949653 119.648417-40.087595 26.827459-33.739113 16.383181-78.895255 3.174241-136.133994-9.778711-42.340283-21.963702-95.073646-21.963701-156.049797zM312.637168 962.460677c-3.737413 4.40298-11.00745 10.290685-31.025649 10.290685s-27.288236-5.836508-31.025648-10.239488c-23.141243-27.39063-7.423629-120.672366 10.80266-228.698965 6.60447-39.012449 13.669717-81.147943 20.274186-126.304084 6.60447 45.104945 13.669717 87.086846 20.222989 126.099295 18.226289 108.128994 33.943903 201.513124 10.80266 228.954952zM813.143343 725.058147c-20.120594-119.341233-45.104945-267.813809-45.156142-443.472226v-255.987201a25.59872 25.59872 0 0 0-47.818409-12.696965c-103.367632 180.931753-154.411479 457.244338-156.561772 468.917354a25.547523 25.547523 0 0 0 25.18914 30.20649h114.426279c-8.959552 79.048848-20.939753 150.264487-31.588821 213.288535-22.834058 135.366032-37.886106 224.756762 0.61437 270.271287 15.922404 18.840658 39.524424 28.414579 70.140493 28.414579s54.218089-9.573921 70.140493-28.414579c38.500475-45.565722 23.448428-135.058847 0.614369-270.527274zM620.077796 460.776961c12.696965-59.952202 45.156142-199.00445 96.711965-323.414229V281.585921c0 63.280036-3.225439 123.027449-8.345183 179.19104H620.026599z m153.336333 501.683716c-3.737413 4.40298-11.00745 10.290685-31.025648 10.290685s-27.288236-5.836508-31.025649-10.239488c-23.141243-27.39063-7.423629-120.672366 10.80266-228.698965 6.60447-39.012449 13.669717-81.147943 20.274186-126.304084 6.60447 45.104945 13.669717 87.138043 20.222989 126.099295 18.226289 108.128994 33.943903 201.513124 10.80266 228.954952z" p-id="25037"></path></svg>