<?xml version="1.0" standalone="no"?><!DOCTYPE svg PUBLIC "-//W3C//DTD SVG 1.1//EN" "http://www.w3.org/Graphics/SVG/1.1/DTD/svg11.dtd"><svg t="1611627088629" class="icon" viewBox="0 0 1024 1024" version="1.1" xmlns="http://www.w3.org/2000/svg" p-id="8941" xmlns:xlink="http://www.w3.org/1999/xlink" width="48" height="48"><defs><style type="text/css"></style></defs><path d="M921.268 666.934c-33.774-36.31-79.53-58.41-128.838-62.232l-1.274-0.098-557.142-0.546c-108.564 0-196.888 88.324-196.888 196.89 0 108.564 88.324 196.888 196.888 196.888h0.034l555.834-0.546 2.546-0.1c49.308-3.82 95.064-25.918 128.84-62.228 33.97-36.518 52.678-84.112 52.678-134.014s-18.708-97.494-52.678-134.014zM511.22 930.75l-277.23 0.272c-71.708-0.014-130.048-58.36-130.048-130.072 0-71.722 58.35-130.074 130.038-130.074l277.24 0.272v259.602zM124.212 541.158c33.542 24.49 74.794 37.978 116.154 37.982h0.008c14.17 0 28.404-1.554 42.304-4.62l1.246-0.274 533.334-161.118c103.896-31.496 162.798-141.646 131.3-245.544-12.502-41.242-37.462-76.444-72.186-101.806-33.552-24.508-74.812-38.004-116.176-38.004a197.046 197.046 0 0 0-57.21 8.52L171.216 198.078l-2.41 0.834c-46.08 17.962-83.456 52.386-105.244 96.932-21.914 44.802-26.008 95.778-11.532 143.534 12.504 41.236 37.464 76.43 72.182 101.78zM722.404 100.228a130.194 130.194 0 0 1 37.792-5.638c56.768 0 107.93 37.988 124.42 92.378 20.806 68.638-18.106 141.408-86.712 162.206l-265.39 80.172-75.316-248.432 265.206-80.686z" p-id="8942"></path></svg>