<?xml version="1.0" standalone="no"?><!DOCTYPE svg PUBLIC "-//W3C//DTD SVG 1.1//EN" "http://www.w3.org/Graphics/SVG/1.1/DTD/svg11.dtd"><svg t="1612491201448" class="icon" viewBox="0 0 1024 1024" version="1.1" xmlns="http://www.w3.org/2000/svg" p-id="4717" xmlns:xlink="http://www.w3.org/1999/xlink" width="48" height="48"><defs><style type="text/css"></style></defs><path d="M96.7 311.4l16.2 19.1s96.4-96.8 151.9-67.3c0 0 40 17.7 39 67.3h62s-3.8-73.7 58.9-74.9c0 0 42.1 1 42.1 33.4h45.9V160.1h-27.6l-32.9 25.7s-25.3 10.1-42.8-4.4l-19-14.9h-115c0-0.1-88.9-9-178.7 144.9z" fill="#B6F5FF" p-id="4718"></path><path d="M112.4 340.9l-24.3-28.7 2.5-4.3c37.9-65 80.3-109.7 125.9-132.9 32.8-16.7 55.7-15.8 59.1-15.6h117.1l21.1 16.5c12.5 10.4 30.7 5 34.8 3.6l34-26.5h37v143h-59.9v-7c0-24.5-32.4-26.2-35.2-26.3-14.7 0.3-26.5 5.1-35 14.3-18.3 19.5-16.9 52.9-16.9 53.2l0.4 7.3H296.6l0.1-7.1c0.9-44.4-34.5-60.6-34.8-60.7l-0.5-0.2c-25.6-13.6-62.7 4.5-89.4 22.1-30.1 19.9-54 43.7-54.2 43.9l-5.4 5.4z m198.2-17.4h48.1c0.6-12.5 3.8-38.2 20.5-56.1 11.3-12.1 26.5-18.4 45.2-18.8h0.4c15.6 0.4 43.9 8 48.4 33.3h32.5V167.1h-18.2l-31.8 24.8-0.9 0.4c-1.2 0.5-29.4 11.5-49.8-5.5l-17-13.3H274.7c-0.2 0-21.4-1.7-53 14.7-28.8 15-72.2 48.4-116.5 122.7l8.1 9.6c21.8-20.5 102.4-90.8 154.4-63.3 3.9 1.5 40.3 19.6 42.9 66.3z" fill="#0F13AE" p-id="4719"></path><path d="M112.4 340.9l-24.3-28.7 2.5-4.3c37.9-65 80.3-109.7 125.9-132.9 32.8-16.7 55.7-15.8 59.1-15.6h117.1l21.1 16.5c12.5 10.4 30.7 5 34.8 3.6l34-26.5h37v143h-59.9v-7c0-24.5-32.4-26.2-35.2-26.3-14.7 0.3-26.5 5.1-35 14.3-18.3 19.5-16.9 52.9-16.9 53.2l0.4 7.3H296.6l0.1-7.1c0.9-44.4-34.5-60.6-34.8-60.7l-0.5-0.2c-25.6-13.6-62.7 4.5-89.4 22.1-30.1 19.9-54 43.7-54.2 43.9l-5.4 5.4z m198.2-17.4h48.1c0.6-12.5 3.8-38.2 20.5-56.1 11.3-12.1 26.5-18.4 45.2-18.8h0.4c15.6 0.4 43.9 8 48.4 33.3h32.5V167.1h-18.2l-31.8 24.8-0.9 0.4c-1.2 0.5-29.4 11.5-49.8-5.5l-17-13.3H274.7c-0.2 0-21.4-1.7-53 14.7-28.8 15-72.2 48.4-116.5 122.7l8.1 9.6c21.8-20.5 102.4-90.8 154.4-63.3 3.9 1.5 40.3 19.6 42.9 66.3z" fill="#0F13AE" p-id="4720"></path><path d="M370.9 559.9h-71V323.5h71v236.4z m-57-14h43V337.5h-43v208.4z" fill="#0F13AE" p-id="4721"></path><path d="M393.9 878.9H279.5l13.6-42.3V580.1l9.9-34.7h66.4l9.9 37.5v254.2l14.6 41.8z m-95.3-14h75.5l-8.9-25.4V584.7l-6.7-25.3h-45.1l-6.5 22.7v256.6l-8.3 26.2z" fill="#0F13AE" p-id="4722"></path><path d="M530.2 327h14v241.5h-14z" fill="#49A3FE" p-id="4723"></path><path d="M537.1 879.6c-18.7 0-33.9-15.2-33.9-33.9V611.5l-17.9-7.9v-41.3H589v41.3l-17.9 7.9v234.2c0 18.7-15.3 33.9-34 33.9z m-37.8-285.2l17.9 7.9v243.3c0 11 8.9 19.9 19.9 19.9 11 0 19.9-8.9 19.9-19.9V602.4l17.9-7.9v-18.2h-75.7v18.1z" fill="#49A3FE" p-id="4724"></path><path d="M894.7 293.3c0-53.3-31.8-99-77.3-119.6v98.7h-108v-98.7C663.8 194.2 632 240 632 293.3c0 54.2 32.9 100.8 79.8 120.8v407.2c0 28.4 23.2 51.6 51.6 51.6 28.4 0 51.6-23.2 51.6-51.6V414.1c46.8-20.1 79.7-66.6 79.7-120.8z" fill="#B6F5FF" p-id="4725"></path><path d="M763.4 879.9c-32.3 0-58.6-26.3-58.6-58.6V418.6c-48.6-22.7-79.8-71.4-79.8-125.4 0-54.2 32-103.6 81.4-126l9.9-4.5v102.5h94V162.8l9.9 4.5c49.5 22.4 81.4 71.8 81.4 126 0 53.9-31.2 102.6-79.8 125.4v402.7c0.1 32.2-26.1 58.5-58.4 58.5z m-61-694.9c-38.8 21.9-63.3 63.3-63.3 108.2 0 49.9 29.7 94.8 75.5 114.4l4.2 1.8v411.8c0 24.6 20 44.6 44.6 44.6s44.6-20 44.6-44.6V409.5l4.2-1.8c45.9-19.6 75.5-64.5 75.5-114.4 0-45-24.5-86.3-63.3-108.2v94.3h-122V185z" fill="#0F13AE" p-id="4726"></path><path d="M762.4 843.3c-12.9 0-23.4-10.5-23.4-23.4s10.5-23.4 23.4-23.4c12.9 0 23.4 10.5 23.4 23.4s-10.5 23.4-23.4 23.4z m0-32.8c-5.2 0-9.4 4.2-9.4 9.4s4.2 9.4 9.4 9.4 9.4-4.2 9.4-9.4-4.2-9.4-9.4-9.4z" fill="#0F13AE" p-id="4727"></path><path d="M755.4 467.7h14v248.6h-14z" fill="#49A3FE" p-id="4728"></path><path d="M755.4 743.8h14v14.7h-14z" fill="#49A3FE" p-id="4729"></path></svg>