<?xml version="1.0" standalone="no"?><!DOCTYPE svg PUBLIC "-//W3C//DTD SVG 1.1//EN" "http://www.w3.org/Graphics/SVG/1.1/DTD/svg11.dtd"><svg t="1614998809638" class="icon" viewBox="0 0 1159 1024" version="1.1" xmlns="http://www.w3.org/2000/svg" p-id="1369" width="54.328125" height="48" xmlns:xlink="http://www.w3.org/1999/xlink"><defs><style type="text/css"></style></defs><path d="M576.819334 1023.986976a41.519531 41.519531 0 0 1-26.880901-9.845911c-8.478424-7.163031-10.952925-9.285893-15.875881-13.531616l-7.605837-6.511847c-92.546358-79.444523-166.27348-146.998415-232.017079-212.650848a41.675815 41.675815 0 1 1 58.893137-58.984303c64.232851 64.141685 136.488296 130.354137 227.406692 208.379078l7.697002 6.616035c4.883885 4.206653 7.12396 6.134159 15.315862 13.023693a41.675815 41.675815 0 0 1-26.932995 73.492696zM119.817969 553.727493a41.675815 41.675815 0 0 1-35.385372-19.535538c-26.529261-42.457237-44.358696-86.190796-59.635487-146.256065a312.399308 312.399308 0 0 1-9.55939-76.839785 311.005773 311.005773 0 0 1 598.425639-118.776074A41.70056 41.70056 0 0 1 536.576124 224.149935 227.015981 227.015981 0 0 0 326.165351 83.402892c-125.509323 0-227.615071 102.105748-227.615071 227.615071A228.995582 228.995582 0 0 0 105.491908 367.319385c13.193 51.912438 27.545109 87.44107 49.490031 122.618063a41.675815 41.675815 0 0 1-35.30723 63.816093z" p-id="1370"></path><path d="M583.148848 1023.986976a41.675815 41.675815 0 0 1-26.919972-73.492696c8.204926-6.941628 10.418954-8.856111 15.315862-13.023692l7.697002-6.616036c82.309736-70.640507 148.470093-130.770895 208.040462-189.234249a41.67842 41.67842 0 1 1 58.359165 59.518274c-60.976928 59.778748-128.374535 121.120339-212.116877 192.972049l-7.592813 6.511846c-4.935979 4.245724-7.410481 6.381609-15.888904 13.54464a41.519531 41.519531 0 0 1-26.893925 9.819864zM1040.202307 553.727493a41.675815 41.675815 0 0 1-35.30723-63.816092c21.983993-35.163969 36.336102-70.705626 49.490031-122.618063a228.995582 228.995582 0 0 0 7.045817-56.22328c0-125.509323-102.105748-227.667166-227.615071-227.667166a227.055052 227.055052 0 0 0-210.449844 140.655877 41.675815 41.675815 0 0 1-77.022117-31.855951 311.057868 311.057868 0 0 1 588.866249 195.680977c-15.263767 60.065269-33.106226 103.798828-59.635487 146.256065a41.675815 41.675815 0 0 1-35.372348 19.587633z" p-id="1371"></path><path d="M572.651752 769.569147a41.675815 41.675815 0 0 1-32.559231-15.628431L379.966224 553.401901l-120.039372 122.201305a41.682327 41.682327 0 0 1-59.46618-58.424283L353.46301 461.454633a41.675815 41.675815 0 0 1 62.29232 3.190805l143.781564 180.078594 141.658701-375.082339a41.675815 41.675815 0 0 1 76.318837-3.802919l168.787053 340.335129a41.675815 41.675815 0 1 1-74.664828 37.039381l-126.329816-254.587138-133.662154 353.983957a41.675815 41.675815 0 0 1-32.494113 26.438096 40.607873 40.607873 0 0 1-6.498822 0.520948z" p-id="1372"></path><path d="M228.891393 690.424168H41.675815a41.675815 41.675815 0 0 1 0-83.351631h187.215578a41.675815 41.675815 0 0 1 0 83.351631zM1117.432802 678.702845H917.310746a41.675815 41.675815 0 0 1 0-83.351631H1117.432802a41.675815 41.675815 0 0 1 0 83.351631z" p-id="1373"></path></svg>