<?xml version="1.0" standalone="no"?><!DOCTYPE svg PUBLIC "-//W3C//DTD SVG 1.1//EN" "http://www.w3.org/Graphics/SVG/1.1/DTD/svg11.dtd"><svg t="1611643321463" class="icon" viewBox="0 0 1024 1024" version="1.1" xmlns="http://www.w3.org/2000/svg" p-id="8736" xmlns:xlink="http://www.w3.org/1999/xlink" width="48" height="48"><defs><style type="text/css"></style></defs><path d="M856.875 648.533l51.285 30.763a21.333 21.333 0 0 1 0 36.608L533.973 940.416a42.667 42.667 0 0 1-43.946 0L115.84 715.904a21.333 21.333 0 0 1 0-36.608l51.285-30.763L512 855.467l344.875-206.934z m0-200.533l51.285 30.763a21.333 21.333 0 0 1 0 36.608L512 753.067 115.84 515.37a21.333 21.333 0 0 1 0-36.608L167.125 448 512 654.933 856.875 448zM533.93 55.85L908.16 280.364a21.333 21.333 0 0 1 0 36.608L512 554.667 115.84 316.97a21.333 21.333 0 0 1 0-36.608L490.027 55.85a42.667 42.667 0 0 1 43.946 0h-0.042zM512 142.166L251.179 298.667 512 455.168l260.821-156.501L512 142.165z" p-id="8737"></path></svg>