<?xml version="1.0" standalone="no"?><!DOCTYPE svg PUBLIC "-//W3C//DTD SVG 1.1//EN" "http://www.w3.org/Graphics/SVG/1.1/DTD/svg11.dtd"><svg t="1602508091070" class="icon" viewBox="0 0 1024 1024" version="1.1" xmlns="http://www.w3.org/2000/svg" p-id="57449" xmlns:xlink="http://www.w3.org/1999/xlink" width="128" height="128"><defs><style type="text/css"></style></defs><path d="M0 402.432a121.344 121.344 0 1 0 242.688 0 121.344 121.344 0 0 0-242.688 0z m781.312 134.144a121.344 121.344 0 1 0 242.688 0 121.344 121.344 0 0 0-242.688 0z m-289.024-318.08a156.8 156.8 0 1 0 313.408 4.48 156.8 156.8 0 0 0-313.408-4.48zM213.696 792.32a149.12 149.12 0 1 0 298.24 0 149.12 149.12 0 0 0-298.24 0z m107.456-143.104L215.68 478.72c-17.28 21.312-41.216 36.096-67.968 42.112L253.248 691.2a150.016 150.016 0 0 1 67.84-42.048zM547.648 337.92l-155.648 308.096a149.12 149.12 0 0 1 71.36 36.096l156.416-309.76a156.224 156.224 0 0 1-72.128-34.432z m317.824 83.072l-86.656-114.688a156.416 156.416 0 0 1-60.416 52.608l83.2 110.272c15.36-22.72 37.76-39.68 63.872-48.192z" p-id="57450"></path></svg>