<?xml version="1.0" standalone="no"?><!DOCTYPE svg PUBLIC "-//W3C//DTD SVG 1.1//EN" "http://www.w3.org/Graphics/SVG/1.1/DTD/svg11.dtd"><svg t="1611458832580" class="icon" viewBox="0 0 1024 1024" version="1.1" xmlns="http://www.w3.org/2000/svg" p-id="24644" xmlns:xlink="http://www.w3.org/1999/xlink" width="48" height="48"><defs><style type="text/css"></style></defs><path d="M348.142933 955.733333H341.333333c-74.9056 0-139.8272-26.948267-192.9728-80.093866C95.214933 822.493867 68.266667 757.589333 68.266667 682.666667c0-74.9056 26.948267-139.8272 80.093866-192.9728 49.066667-49.066667 108.168533-75.793067 175.906134-79.616V256c0-6.468267 3.652267-12.373333 9.437866-15.274667L494.933333 160.119467V85.333333a17.066667 17.066667 0 0 1 17.066667-17.066666h256a17.066667 17.066667 0 0 1 17.066667 17.066666v74.786134l161.2288 80.622933A17.032533 17.032533 0 0 1 955.733333 256v682.666667a17.066667 17.066667 0 0 1-17.066666 17.066666H348.142933zM699.733333 921.6h221.866667V699.733333H699.733333v221.866667z m-225.1776 0H665.6V266.5472l-153.6-76.8-153.6 76.8v143.530667c67.7376 3.822933 126.839467 30.549333 175.906133 79.616C587.451733 542.839467 614.4 607.744 614.4 682.666667s-26.948267 139.8272-80.093867 192.9728A281.275733 281.275733 0 0 1 474.555733 921.6zM341.333333 443.733333c-66.4576 0-121.668267 22.920533-168.840533 70.0928C125.320533 560.981333 102.4 616.209067 102.4 682.666667s22.920533 121.668267 70.0928 168.840533S274.875733 921.6 341.333333 921.6h6.6048c63.658667-1.655467 116.718933-24.576 162.218667-70.0928C557.329067 804.352 580.266667 749.124267 580.266667 682.666667s-22.9376-121.685333-70.0928-168.840534C463.0016 466.653867 407.790933 443.733333 341.333333 443.733333z m358.4 221.866667h221.866667V358.4H699.733333v307.2z m0-341.333333h221.866667v-57.719467L763.972267 187.733333H584.2944l106.001067 52.992c5.7856 2.901333 9.437867 8.8064 9.437866 15.274667v68.266667zM529.066667 153.6h221.866666V102.4H529.066667v51.2z" p-id="24645"></path></svg>