<?xml version="1.0" standalone="no"?><!DOCTYPE svg PUBLIC "-//W3C//DTD SVG 1.1//EN" "http://www.w3.org/Graphics/SVG/1.1/DTD/svg11.dtd"><svg t="1615001248657" class="icon" viewBox="0 0 1024 1024" version="1.1" xmlns="http://www.w3.org/2000/svg" p-id="2718" xmlns:xlink="http://www.w3.org/1999/xlink" width="48" height="48"><defs><style type="text/css"></style></defs><path d="M821.574863 397.603112h2.870264C877.53991 397.603112 920.578554 440.703042 920.578554 493.869327v285.902843c0 134.881995-109.20794 244.232938-243.921397 244.232937H477.679401a243.819252 243.819252 0 0 1-197.144259-100.418394l-194.703002-267.583202a94.917905 94.917905 0 0 1 5.760957-118.835072l9.050015-10.199142c33.845626-38.120379 92.144678-41.552439 130.213985-7.665955 0.919302 0.817157 1.818175 1.649636 2.701726 2.502543l37.134683 35.801696a14.336 14.336 0 0 0 20.291033-0.377935 14.376858 14.376858 0 0 0 4.009177-9.969317V218.017516c0-53.166284 43.043751-96.256 96.133426-96.256h2.870264c53.094783 0 96.133426 43.094823 96.133427 96.256v87.047661a95.617596 95.617596 0 0 1 44.48399-10.90394h2.865157c44.116269 0 81.29181 29.754733 92.604329 70.316369a95.597167 95.597167 0 0 1 48.00798-12.849796h2.870265c40.576958 0 75.280599 25.168439 89.386773 60.765846a95.59206 95.59206 0 0 1 51.225536-14.790544zM317.210175 896.829925a198.456818 198.456818 0 0 0 160.469226 81.73614h198.977756c109.652269 0 198.543641-89.008838 198.543641-198.80411v-285.902843c0-28.064239-22.727182-50.816958-50.755671-50.816957h-2.870264c-28.028489 0-50.750564 22.752718-50.750564 50.816957v102.006743c0 26.097955-39.106075 26.097955-39.106075 0V447.888918c0-28.069347-22.727182-50.822065-50.75567-50.822065h-2.870265c-28.028489 0-50.750564 22.752718-50.750563 50.816957v113.503123c0 26.097955-39.106075 26.097955-39.106075 0V390.422344c0-28.069347-22.727182-50.822065-50.755671-50.822065h-2.870264c-28.028489 0-50.750564 22.752718-50.750564 50.816958v136.490773c0 26.097955-39.106075 26.097955-39.106075 0v-308.885387c0-28.069347-22.727182-50.827172-50.755671-50.827172h-2.870264c-28.028489 0-50.750564 22.757825-50.750563 50.822065v329.237706c0 15.474913-5.985676 30.336958-16.700649 41.480938-22.880399 23.794594-60.699451 24.509606-84.458294 1.598563l-37.134683-35.806803a46.807781 46.807781 0 0 0-67.517606 2.625117l-9.055123 10.194035a49.438005 49.438005 0 0 0-3.003052 61.894544L317.210175 896.829925zM586.054863 196.628429a22.982544 22.982544 0 0 1-45.965087 0c0-83.207022-67.456319-150.663342-150.663342-150.663342S238.763092 113.421406 238.763092 196.628429a22.982544 22.982544 0 1 1-45.965087 0C192.798005 88.033357 280.831362 0 389.426434 0s196.628429 88.033357 196.628429 196.628429z" p-id="2719"></path></svg>