<?xml version="1.0" standalone="no"?><!DOCTYPE svg PUBLIC "-//W3C//DTD SVG 1.1//EN" "http://www.w3.org/Graphics/SVG/1.1/DTD/svg11.dtd"><svg t="1611456220724" class="icon" viewBox="0 0 1182 1024" version="1.1" xmlns="http://www.w3.org/2000/svg" p-id="20402" xmlns:xlink="http://www.w3.org/1999/xlink" width="55.40625" height="48"><defs><style type="text/css"></style></defs><path d="M1131.835077 992.807385 1131.835077 992.807385c-68.135385-12.248615-148.48-57.934769-186.801231-142.611692C1088.393846 763.904 1181.538462 627.121231 1181.538462 472.615385c0-261.001846-264.507077-472.615385-590.769231-472.615385S0 211.613538 0 472.615385s264.507077 472.615385 590.769231 472.615385c43.756308 0 86.291692-4.096 127.291077-11.303385 112.64 77.784615 246.232615 102.754462 409.993846 84.243692 9.767385-0.787692 14.020923-5.828923 14.020923-12.839385C1142.153846 999.069538 1137.703385 993.988923 1131.835077 992.807385zM354.461538 551.384615c-43.480615 0-78.769231-35.249231-78.769231-78.769231 0-43.480615 35.288615-78.769231 78.769231-78.769231s78.769231 35.288615 78.769231 78.769231C433.230769 516.135385 397.942154 551.384615 354.461538 551.384615zM590.769231 551.384615c-43.480615 0-78.769231-35.249231-78.769231-78.769231 0-43.480615 35.288615-78.769231 78.769231-78.769231s78.769231 35.288615 78.769231 78.769231C669.538462 516.135385 634.249846 551.384615 590.769231 551.384615zM827.076923 551.384615c-43.480615 0-78.769231-35.249231-78.769231-78.769231 0-43.480615 35.288615-78.769231 78.769231-78.769231s78.769231 35.288615 78.769231 78.769231C905.846154 516.135385 870.557538 551.384615 827.076923 551.384615z" p-id="20403"></path></svg>