<?xml version="1.0" standalone="no"?><!DOCTYPE svg PUBLIC "-//W3C//DTD SVG 1.1//EN" "http://www.w3.org/Graphics/SVG/1.1/DTD/svg11.dtd"><svg t="1614999362900" class="icon" viewBox="0 0 1024 1024" version="1.1" xmlns="http://www.w3.org/2000/svg" p-id="2202" xmlns:xlink="http://www.w3.org/1999/xlink" width="48" height="48"><defs><style type="text/css"></style></defs><path d="M960 0l64 0 0 736c0 88.352-100.288 160-224 160s-224-71.648-224-160c0-88.352 100.288-160 224-160 62.688 0 119.328 18.4 160 48.032l0-368.032-512 113.792 0 494.208c0 88.352-100.288 160-224 160s-224-71.648-224-160c0-88.352 100.288-160 224-160 62.688 0 119.328 18.4 160 48.032l0-624.032 576-128z" p-id="2203"></path></svg>