<?xml version="1.0" standalone="no"?><!DOCTYPE svg PUBLIC "-//W3C//DTD SVG 1.1//EN" "http://www.w3.org/Graphics/SVG/1.1/DTD/svg11.dtd"><svg t="1602508488797" class="icon" viewBox="0 0 1024 1024" version="1.1" xmlns="http://www.w3.org/2000/svg" p-id="62268" xmlns:xlink="http://www.w3.org/1999/xlink" width="128" height="128"><defs><style type="text/css"></style></defs><path d="M427.3152 618.1888a35.328 35.328 0 0 0 31.488 51.8656h69.8368a35.2768 35.2768 0 0 0 31.488-51.8656 141.056 141.056 0 1 0-132.8128 0z m66.4064 369.2544A493.7216 493.7216 0 0 1 0 493.7216 493.7216 493.7216 0 0 1 493.7216 0a493.7216 493.7216 0 0 1 493.7216 493.7216 493.7216 493.7216 0 0 1-493.7216 493.7216z m-70.5536-246.8352a35.328 35.328 0 0 0 35.6352 35.2256h69.8368a35.2768 35.2768 0 0 0 0-70.5024H458.752a35.2768 35.2768 0 0 0-35.6352 35.2768z m35.328-529.0496v35.328c0 19.6096 15.7696 35.2256 35.2256 35.2256a35.1744 35.1744 0 0 0 35.2768-35.2256v-35.328a35.1744 35.1744 0 0 0-35.2768-35.2256 35.1744 35.1744 0 0 0-35.2768 35.2256z m189.5936 43.3664l-22.7328 27.0848a35.1744 35.1744 0 0 0 4.4032 49.664 35.1744 35.1744 0 0 0 49.664-4.352l22.6816-27.0848a35.1744 35.1744 0 0 0-4.352-49.664 35.1744 35.1744 0 0 0-49.664 4.352z m117.4016 155.0848l-34.816 6.144a35.1744 35.1744 0 0 0-28.5696 40.8064 35.1744 35.1744 0 0 0 40.8064 28.6208l34.816-6.144a35.1744 35.1744 0 0 0 28.5696-40.8576 35.1744 35.1744 0 0 0-40.8064-28.5696z m-9.7792 194.2528l-30.6176-17.664a35.1744 35.1744 0 0 0-48.128 12.9024 35.1744 35.1744 0 0 0 12.8512 48.1792l30.6176 17.664a35.1744 35.1744 0 0 0 48.128-12.9024 35.1744 35.1744 0 0 0-12.8512-48.1792z m-488.704 61.0816l30.6176-17.664a35.1744 35.1744 0 0 0 12.8512-48.128 35.1744 35.1744 0 0 0-48.128-12.9536l-30.6176 17.664a35.1744 35.1744 0 0 0-12.8512 48.128 35.1744 35.1744 0 0 0 48.128 12.9536z m-57.2928-185.856l34.816 6.0928a35.1744 35.1744 0 0 0 40.8064-28.5696 35.1744 35.1744 0 0 0-28.5696-40.9088l-34.816-6.144a35.1744 35.1744 0 0 0-40.8064 28.672 35.1744 35.1744 0 0 0 28.5696 40.8064z m75.5712-179.2l22.7328 27.0336a35.1744 35.1744 0 0 0 49.664 4.3008 35.1744 35.1744 0 0 0 4.352-49.664l-22.6816-27.0336a35.1744 35.1744 0 0 0-49.664-4.3008 35.1744 35.1744 0 0 0-4.4032 49.664z" p-id="62269"></path></svg>