<?xml version="1.0" standalone="no"?><!DOCTYPE svg PUBLIC "-//W3C//DTD SVG 1.1//EN" "http://www.w3.org/Graphics/SVG/1.1/DTD/svg11.dtd"><svg t="1611455187903" class="icon" viewBox="0 0 1024 1024" version="1.1" xmlns="http://www.w3.org/2000/svg" p-id="18693" xmlns:xlink="http://www.w3.org/1999/xlink" width="48" height="48"><defs><style type="text/css"></style></defs><path d="M236.352 767.04c31.488 27.136 66.176 50.304 104.128 69.568l-56.896 114.624c-2.944 3.52-6.016 6.144-9.216 7.872s-6.592 1.152-10.048-1.728c-2.944 0-4.992-2.048-6.144-6.144l-37.632-63.872c-6.976-12.224-16.064-20.544-27.136-24.96-11.072-4.352-23.36-6.592-36.736-6.592l-76.096 6.144c-2.944 0-5.696-1.152-8.32-3.52-2.624-2.368-3.968-5.248-3.968-8.768v-6.144l82.24-165.376c25.728 32.128 54.336 61.76 85.824 88.896z m526.784-97.152c-66.496 66.816-150.208 101.376-251.136 103.68-100.928-2.304-184.64-36.864-251.136-103.68S159.68 519.552 156.736 419.2c2.944-100.928 37.632-184.768 104.128-251.584C327.36 100.864 411.072 66.304 512 63.936c100.928 2.368 184.64 36.928 251.136 103.68 66.496 66.816 100.928 150.656 103.232 251.584-2.304 100.352-36.736 183.872-103.232 250.688z m-68.288-292.224c0.576-3.2 0.896-6.272 0.896-9.216 2.944-9.92 2.176-17.664-2.176-23.168-4.352-5.568-10.048-8.576-17.088-9.216l-62.976-6.144c-12.864 0-23.04-2.944-30.656-8.768-7.616-5.824-14.272-13.44-20.096-22.72l-25.344-56.896c-2.944-3.52-5.12-6.592-6.592-9.216-1.472-2.624-3.648-3.968-6.592-3.968-6.4-2.944-13.44-3.072-20.992-0.448-7.616 2.624-13.12 7.168-16.64 13.568l-25.344 56.896c-5.824 9.344-12.672 17.216-20.544 23.616s-17.92 11.072-30.208 14.016l-62.976 7.04c-2.944-0.576-5.12-0.448-6.592 0.448-1.472 0.896-3.648 2.752-6.592 5.696-12.864 12.864-12.864 25.344 0 37.632l44.608 44.608c18.688 12.864 25.088 31.808 19.264 56.896l-13.12 63.872v12.224c6.4 6.4 12.8 10.944 19.264 13.568 6.4 2.624 12.8 2.496 19.264-0.448l56.896-32.384c9.344-6.4 19.712-9.6 31.04-9.6s22.016 3.2 31.936 9.6l56.896 38.528h19.264c6.4-3.52 11.2-8 14.464-13.568 3.2-5.568 4.8-11.52 4.8-17.92l-13.12-63.872c-6.4-25.088 0-44.032 19.264-56.896l44.608-44.608c2.88-2.88 4.608-5.952 5.184-9.152z m260.8 458.88c0 3.52-1.344 6.592-3.968 9.216s-5.696 3.968-9.216 3.968l-76.096-6.144c-12.864 0-24.96 2.752-36.288 8.32s-20.288 13.248-26.688 23.168l-37.632 62.976c-0.576 2.944-1.728 4.8-3.52 5.696s-2.944 1.344-3.52 1.344c-2.944 0-6.016-0.448-9.216-1.344-3.2-0.896-6.272-2.752-9.216-5.696l-57.728-113.728c38.528-15.744 73.472-36.032 105.024-60.8 31.488-24.768 60.096-53.248 85.76-85.312l82.24 165.376v-7.04z" p-id="18694"></path></svg>