<?xml version="1.0" standalone="no"?><!DOCTYPE svg PUBLIC "-//W3C//DTD SVG 1.1//EN" "http://www.w3.org/Graphics/SVG/1.1/DTD/svg11.dtd"><svg t="1611569569832" class="icon" viewBox="0 0 1024 1024" version="1.1" xmlns="http://www.w3.org/2000/svg" p-id="5832" xmlns:xlink="http://www.w3.org/1999/xlink" width="48" height="48"><defs><style type="text/css"></style></defs><path d="M97.4336 699.6992V244.8384c0-11.1104 5.7344-21.4016 15.2064-27.2384 49.7152-30.6688 215.5008-112.8448 408.6784 10.1888 184.0128-118.5792 355.3792-46.2848 409.6512-10.7008 8.9088 5.8368 14.1824 15.9232 14.1824 26.5728v453.5296c0 15.4112-15.872 25.8048-29.952 19.456-62.464-28.1088-215.6032-76.6976-393.9328 15.4112-169.7792-82.9952-296.2944-53.1456-394.4448-12.6976-14.0288 5.7856-29.3888-4.5056-29.3888-19.6608z" p-id="5833"></path><path d="M913.408 857.8048c-6.144 0-12.3392-1.8432-17.7664-5.6832-6.5024-4.5568-163.9936-111.8208-360.0896-3.6352a30.66368 30.66368 0 0 1-33.024-2.1504c-161.28-118.272-370.8928 0.6144-372.992 1.792a30.72 30.72 0 0 1-41.984-11.2128 30.72 30.72 0 0 1 11.2128-41.984c9.728-5.632 233.9328-132.6592 424.0896-9.2672 222.8224-112.0256 400.6912 10.8544 408.32 16.2816a30.7456 30.7456 0 0 1 7.2704 42.8544 30.43328 30.43328 0 0 1-25.0368 13.0048z" fill="#ffffff" p-id="5834"></path></svg>