<?xml version="1.0" standalone="no"?><!DOCTYPE svg PUBLIC "-//W3C//DTD SVG 1.1//EN" "http://www.w3.org/Graphics/SVG/1.1/DTD/svg11.dtd"><svg t="1611455084478" class="icon" viewBox="0 0 1024 1024" version="1.1" xmlns="http://www.w3.org/2000/svg" p-id="17256" xmlns:xlink="http://www.w3.org/1999/xlink" width="48" height="48"><defs><style type="text/css"></style></defs><path d="M519.168 70.144 615.7824 265.8048 831.6928 297.1904 675.4304 449.5104 712.3456 664.576 519.168 563.072 326.0928 664.576 362.9056 449.5104 206.6688 297.1904 422.6304 265.8048Z" p-id="17257"></path><path d="M244.1216 580.0448 298.8544 690.9696 421.2736 708.7616 332.6976 795.1104 353.6128 916.992 244.1216 859.4432 134.6304 916.992 155.5456 795.1104 66.9696 708.7616 189.3888 690.9696Z" p-id="17258"></path><path d="M779.8784 580.0448 834.6368 690.9696 957.0304 708.7616 868.4544 795.1104 889.3184 916.992 779.8784 859.4432 670.4128 916.992 691.3024 795.1104 602.7264 708.7616 725.12 690.9696Z" p-id="17259"></path></svg>