<?xml version="1.0" standalone="no"?><!DOCTYPE svg PUBLIC "-//W3C//DTD SVG 1.1//EN" "http://www.w3.org/Graphics/SVG/1.1/DTD/svg11.dtd"><svg t="1611573436398" class="icon" viewBox="0 0 1024 1024" version="1.1" xmlns="http://www.w3.org/2000/svg" p-id="6444" xmlns:xlink="http://www.w3.org/1999/xlink" width="48" height="48"><defs><style type="text/css"></style></defs><path d="M384 469.333333a42.666667 42.666667 0 1 0-42.666667-42.666666 42.666667 42.666667 0 0 0 42.666667 42.666666z m256 0a42.666667 42.666667 0 1 0-42.666667-42.666666 42.666667 42.666667 0 0 0 42.666667 42.666666z m11.52 136.533334a42.666667 42.666667 0 0 0-51.2 0l-31.573333 23.466666-31.146667-23.466666a42.666667 42.666667 0 0 0-51.2 0l-31.146667 23.466666-31.573333-23.466666a42.666667 42.666667 0 0 0-51.2 0l-56.746667 42.666666a42.666667 42.666667 0 1 0 51.2 68.266667l31.146667-23.466667 31.573333 23.466667 5.12 2.56a35.413333 35.413333 0 0 0 9.386667 3.413333h5.12a42.666667 42.666667 0 0 0 10.666667 0h4.266666a45.226667 45.226667 0 0 0 14.506667-6.826666l31.146667-23.466667 31.146666 23.466667a42.666667 42.666667 0 0 0 42.666667 4.693333l4.266667-2.133333a16.64 16.64 0 0 0 4.693333-2.56l31.573333-23.466667 31.146667 23.466667a42.666667 42.666667 0 0 0 25.6 8.533333 42.666667 42.666667 0 0 0 34.133333-17.066667 42.666667 42.666667 0 0 0-8.533333-59.733333zM512 85.333333a426.666667 426.666667 0 1 0 426.666667 426.666667A426.666667 426.666667 0 0 0 512 85.333333z m0 768a341.333333 341.333333 0 1 1 341.333333-341.333333 341.333333 341.333333 0 0 1-341.333333 341.333333z" p-id="6445"></path></svg>