<?xml version="1.0" standalone="no"?><!DOCTYPE svg PUBLIC "-//W3C//DTD SVG 1.1//EN" "http://www.w3.org/Graphics/SVG/1.1/DTD/svg11.dtd"><svg t="1611456395880" class="icon" viewBox="0 0 1024 1024" version="1.1" xmlns="http://www.w3.org/2000/svg" p-id="21159" xmlns:xlink="http://www.w3.org/1999/xlink" width="48" height="48"><defs><style type="text/css"></style></defs><path d="M592.3 264.1c-2 0-3.9-0.8-5.3-2.1-1.4-1.4-2.2-3.3-2.1-5.3 0-4.1 3.3-7.4 7.4-7.4h89.1c3.3 0 6.1 2.1 7.1 5.3 1 3.2-0.2 6.6-3 8.4l-68.7 45.7h64.5c4.1 0 7.4 3.3 7.4 7.4 0 4.1-3.3 7.4-7.4 7.4h-89.1c-3.3 0-6.1-2.1-7.1-5.3-1-3.1 0.2-6.5 3-8.4l68.7-45.7h-64.5z m163.1 74.2c-2 0-3.9-0.8-5.2-2.2-1.4-1.4-2.2-3.3-2.2-5.2 0-4.1 3.3-7.4 7.4-7.4h111.2c2.5-2.1 6.1-2.2 8.9-0.4 2.7 1.8 3.9 5.2 2.9 8.4-1 3.1-3.9 5.3-7.2 5.2l-94.8 75.9h90.1c4.1 0 7.4 3.3 7.4 7.4 0 4.1-3.3 7.4-7.4 7.4H755.4c-3.1 0-5.9-2-7-5-1-3-0.1-6.3 2.3-8.2l94.8-75.9h-90.1zM599.6 546c-7.9-0.4-14.1-6.9-14.1-14.8s6.2-14.4 14.1-14.8H748c6.3 0 11.9 4 14.1 9.9 2.1 5.9 0.2 12.6-4.8 16.5L642 635.2h106c8.2 0 14.8 6.6 14.8 14.8 0 8.2-6.6 14.8-14.8 14.8H599.6c-6.3 0-11.9-4-14.1-9.9-2.1-5.9-0.2-12.6 4.8-16.5L705.7 546H599.6zM796 761.7c28.3 0 56-2.9 82.8-8.1C801 857.7 676.7 925 536.9 925 301.1 925 110 733.8 110 498.1c0-207.5 148-380.3 344-418.8-55.2 73.7-85 163.4-84.9 255.5 0 235.8 191.1 426.9 426.9 426.9z m0 0" p-id="21160"></path></svg>