<?xml version="1.0" standalone="no"?><!DOCTYPE svg PUBLIC "-//W3C//DTD SVG 1.1//EN" "http://www.w3.org/Graphics/SVG/1.1/DTD/svg11.dtd"><svg t="1611454154733" class="icon" viewBox="0 0 1024 1024" version="1.1" xmlns="http://www.w3.org/2000/svg" p-id="14498" xmlns:xlink="http://www.w3.org/1999/xlink" width="48" height="48"><defs><style type="text/css"></style></defs><path d="M951.598545 632.32H403.386182a51.060364 51.060364 0 0 1-36.189091-15.499636l-95.674182-95.674182a24.994909 24.994909 0 0 1 0-36.212364l95.650909-95.650909c10.356364-10.356364 23.272727-15.522909 36.212364-15.522909H951.621818c15.522909 0 25.856 10.333091 25.856 25.832727v206.894546c0 15.499636-10.333091 25.832727-25.856 25.832727z" p-id="14499"></path><path d="M98.257455 37.585455h51.712v930.90909H98.257455z" p-id="14500"></path><path d="M124.113455 141.009455m-77.568 0a77.568 77.568 0 1 0 155.136 0 77.568 77.568 0 1 0-155.136 0Z" p-id="14501"></path><path d="M124.113455 503.04m-77.568 0a77.568 77.568 0 1 0 155.136 0 77.568 77.568 0 1 0-155.136 0Z" p-id="14502"></path><path d="M124.113455 865.047273m-77.568 0a77.568 77.568 0 1 0 155.136 0 77.568 77.568 0 1 0-155.136 0Z" p-id="14503"></path><path d="M744.727273 994.350545H403.386182a51.060364 51.060364 0 0 1-36.189091-15.499636l-95.674182-95.697454a24.994909 24.994909 0 0 1 0-36.189091l95.650909-95.674182c10.356364-10.356364 23.272727-15.522909 36.212364-15.522909H744.727273c15.522909 0 25.856 10.356364 25.856 25.856v206.894545c0 15.499636-10.333091 25.832727-25.856 25.832727z" p-id="14504"></path><path d="M770.583273 270.312727H403.386182a51.060364 51.060364 0 0 1-36.189091-15.522909l-95.674182-95.650909a24.994909 24.994909 0 0 1 0-36.212364l95.650909-95.674181c10.356364-10.356364 23.272727-15.522909 36.212364-15.522909h367.197091c15.522909 0 25.856 10.333091 25.856 25.856v206.871272c0 15.522909-10.333091 25.856-25.832728 25.856z" p-id="14505"></path></svg>