<?xml version="1.0" standalone="no"?><!DOCTYPE svg PUBLIC "-//W3C//DTD SVG 1.1//EN" "http://www.w3.org/Graphics/SVG/1.1/DTD/svg11.dtd"><svg t="1602501103284" class="icon" viewBox="0 0 1024 1024" version="1.1" xmlns="http://www.w3.org/2000/svg" p-id="47187" xmlns:xlink="http://www.w3.org/1999/xlink" width="128" height="128"><defs><style type="text/css"></style></defs><path d="M511.965869 1024a511.965869 511.965869 0 1 1 362.096394-149.937737A508.552763 508.552763 0 0 1 511.965869 1024zM273.048463 462.987801v237.79108a47.271515 47.271515 0 0 0 43.414706 50.275049h391.244317a47.203253 47.203253 0 0 0 43.244051-50.275049v-237.79108z m43.244051-96.113059A43.585361 43.585361 0 0 0 273.048463 410.733151v26.929405h477.834811v-26.929405a43.585361 43.585361 0 0 0-43.24405-43.858409h-88.023998V304.210119a30.717952 30.717952 0 0 0-30.479035-31.059262h-154.443037a30.717952 30.717952 0 0 0-30.479035 31.059262v62.664623z m201.373242 299.124591a22.458236 22.458236 0 0 1-21.024732-23.584561v-25.734817a8.771682 8.771682 0 0 0-8.225585-9.215386h-23.209119a23.891741 23.891741 0 0 1 0-47.408039h23.209119a8.771682 8.771682 0 0 0 8.225585-9.215386v-25.80308a21.161256 21.161256 0 1 1 42.049463 0v25.80308a8.771682 8.771682 0 0 0 8.259716 9.215386h23.174989a23.891741 23.891741 0 0 1 0 47.408039h-23.174989a8.771682 8.771682 0 0 0-8.259716 9.215386v25.734817a22.458236 22.458236 0 0 1-21.092993 23.55043z m49.524165-310.592627h-110.243317V318.681688a3.959203 3.959203 0 0 1 1.399373-3.140057 4.641824 4.641824 0 0 1 3.413106-1.399374h100.789014a5.4951 5.4951 0 0 1 3.413106 1.399374 4.778348 4.778348 0 0 1 1.365242 3.140057v36.725018z" p-id="47188"></path></svg>