<?xml version="1.0" standalone="no"?><!DOCTYPE svg PUBLIC "-//W3C//DTD SVG 1.1//EN" "http://www.w3.org/Graphics/SVG/1.1/DTD/svg11.dtd"><svg t="1611453822402" class="icon" viewBox="0 0 1024 1024" version="1.1" xmlns="http://www.w3.org/2000/svg" p-id="10793" xmlns:xlink="http://www.w3.org/1999/xlink" width="48" height="48"><defs><style type="text/css"></style></defs><path d="M506.942 345.921c25.259 0 42.134-16.916 42.134-42.107 0-25.477-16.848-41.956-42.134-41.956-25.299 0-50.668 16.48-50.668 41.956 0.028 25.204 25.409 42.107 50.668 42.107z m0 0z m-235.685-84.064c-25.259 0-50.79 16.48-50.79 41.956 0 25.19 25.532 42.107 50.79 42.107 25.163 0 42.012-16.916 42.012-42.107-0.014-25.477-16.834-41.956-42.012-41.956z m0 0z m739.397 353.635c0-133.202-123.563-246.702-275.237-258.512 0.205-1.652 0.301-3.373-0.068-5.092-30.406-141.79-182.886-248.695-354.7-248.695-194.15 0-352.119 135.387-352.119 301.793 0 89.279 45.574 169.725 131.946 233.158l-30.106 90.508a15.42 15.42 0 0 0 4.506 16.452 15.435 15.435 0 0 0 10.076 3.741c2.335 0 4.697-0.546 6.867-1.625l113.036-56.565 13.926 2.827c34.802 7.154 64.853 13.353 101.868 13.353 10.895 0 40.878-3.987 43.404-7.182 40.755 101.99 153.094 175.61 285.273 175.61 33.86 0 68.13-8.164 98.891-15.866l87.136 47.636c2.307 1.257 4.847 1.911 7.359 1.911 3.441 0 6.881-1.161 9.639-3.413 4.847-3.932 6.841-10.404 5.038-16.33L895.134 815.2c74.602-58.955 115.521-129.488 115.521-199.708zM409.798 665.75a338.345 338.345 0 0 1-29.082 1.243c-32.686 0-60.334-5.652-92.31-12.26l-18.582-3.755a14.266 14.266 0 0 0-9.503 1.269l-81.687 40.892 21.231-63.775c2.076-6.24-0.205-13.053-5.57-16.821-82.07-57.207-123.659-126.894-123.659-207.093 0-144.179 139.087-261.516 310.067-261.516 151.142 0 284.959 91.955 312.579 214.261-158.475 2.076-286.706 113.487-286.706 250.32 0 19.893 3.018 39.171 8.11 57.767-1.542-0.382-3.168-0.683-4.887-0.532z m450.573 122.949c-4.875 3.673-6.935 10.007-5.188 15.852l13.804 45.903-56.647-30.993a14.577 14.577 0 0 0-7.004-1.803c-1.188 0-2.389 0.15-3.564 0.464-30.379 7.674-61.822 15.593-92.433 15.593-142.186 0-257.857-97.717-257.857-217.811 0-120.095 115.658-217.771 257.857-217.771 139.469 0 257.325 99.724 257.325 217.771 0 59.87-37.738 121.255-106.291 172.797z m7.81 8.479zM616.454 506.006c-16.848 0-33.696 16.971-33.696 33.792 0 16.944 16.848 33.669 33.696 33.669 25.313 0 42.038-16.725 42.038-33.669 0-16.848-16.725-33.792-42.038-33.792z m0 0z m185.126 0c-16.603 0-33.451 16.971-33.451 33.792 0 16.944 16.848 33.669 33.451 33.669 25.231 0 42.257-16.725 42.257-33.669 0-16.848-16.998-33.792-42.257-33.792z m0 0z" p-id="10794"></path></svg>